<svg version="1.1" id="Layer_1" xmlns="http://www.w3.org/2000/svg" xmlns:xlink="http://www.w3.org/1999/xlink" x="0px" y="0px"
	 width="100%" viewBox="0 0 348 348" enable-background="new 0 0 348 348" xml:space="preserve">
<path fill="#3566B4" opacity="1.000000" stroke="none" 
	d="
M189.000000,349.000000 
	C180.312439,349.000000 171.624863,349.000000 162.270844,348.620361 
	C156.520447,347.813721 151.360016,347.804199 146.365402,346.889404 
	C121.107925,342.263367 97.311890,333.470947 76.388153,318.546112 
	C52.563812,301.552246 33.050816,280.431763 19.900949,253.875092 
	C12.288557,238.501572 6.387704,222.634094 3.948152,205.568756 
	C3.154764,200.018768 1.993179,194.521423 0.999999,189.000000 
	C1.000000,180.312439 1.000000,171.624863 1.379649,162.270844 
	C2.499751,155.423782 2.988899,149.200684 4.025737,143.070190 
	C7.787614,120.827423 16.040670,100.204430 28.228498,81.350517 
	C42.606079,59.109161 61.082901,40.745663 83.716652,26.805637 
	C104.330444,14.109695 126.663818,6.124940 150.704193,2.977376 
	C154.818558,2.438688 158.902176,1.665083 163.000000,1.000000 
	C171.020905,1.000000 179.041809,1.000000 187.718430,1.373219 
	C191.454193,2.163910 194.523590,2.699295 197.616119,2.978611 
	C211.633759,4.244683 225.121338,7.948970 238.041458,13.178140 
	C248.209274,17.293367 257.934113,22.619970 267.545990,27.965473 
	C283.127930,36.631157 295.857117,48.981579 307.425446,62.205173 
	C319.307251,75.787117 328.951721,91.109749 335.578217,108.080864 
	C340.898193,121.705887 345.297791,135.590790 347.031464,150.207855 
	C347.500305,154.160797 348.333862,158.070465 349.000000,162.000000 
	C349.000000,170.687561 349.000000,179.375137 348.622253,188.725952 
	C347.314178,206.486755 343.203094,222.867538 336.975250,238.746399 
	C329.955048,256.645538 320.528168,273.266968 307.750549,287.583954 
	C294.244843,302.716705 279.325348,316.432068 261.277222,326.265106 
	C243.901810,335.731567 225.772018,343.022461 206.083908,346.028320 
	C200.371185,346.900482 194.693665,348.003052 189.000000,349.000000 
M154.355103,101.758118 
	C146.673370,106.990990 141.441620,113.964897 138.690399,122.920105 
	C133.585770,139.535614 141.035355,158.344833 156.198334,166.614609 
	C172.415344,175.459244 192.459610,172.026703 203.779251,158.466446 
	C215.462158,144.471024 215.807983,124.407883 205.135437,110.535904 
	C194.590164,96.829338 173.398438,90.361847 154.355103,101.758118 
M172.333496,247.999588 
	C169.567657,247.999588 166.801834,247.999588 163.556000,247.999588 
	C163.684921,250.392395 163.775101,252.065964 163.875809,253.935287 
	C167.819885,253.935287 171.221893,254.384338 174.414032,253.760101 
	C176.213348,253.408249 179.028564,251.324112 179.064865,249.958603 
	C179.416641,236.726685 179.276108,223.481689 179.276108,209.672211 
	C175.503952,209.672211 172.226379,209.715134 168.950424,209.660858 
	C165.244614,209.599472 163.394836,211.290726 163.455566,215.065887 
	C163.511658,218.553101 163.457184,222.042068 163.456787,225.530258 
	C163.455551,236.341492 163.456543,236.341492 174.545135,238.531754 
	C174.121643,241.579132 173.687027,244.706558 172.333496,247.999588 
M220.941315,237.739883 
	C222.556992,237.846985 224.172668,237.954086 226.031677,238.077316 
	C226.031677,241.464508 226.031677,244.502213 226.031677,247.788498 
	C222.570709,247.966385 219.475388,248.125473 216.269897,248.290237 
	C216.269897,250.292374 216.269897,251.967117 216.269897,253.960251 
	C219.687286,253.960251 222.670303,253.871445 225.645966,253.981583 
	C229.854660,254.137360 231.786819,252.158737 231.756470,248.004868 
	C231.716309,242.509598 231.753738,237.013763 231.754974,231.518173 
	C231.756577,224.413818 231.755356,217.309464 231.755356,209.658051 
	C227.801117,209.658051 224.510727,209.675125 221.220596,209.653488 
	C217.527008,209.629181 215.712524,211.323761 215.776794,215.131577 
	C215.872330,220.792084 215.857025,226.456192 215.778091,232.117233 
	C215.735153,235.196213 216.699570,237.326538 220.941315,237.739883 
M197.747940,221.564056 
	C196.268921,237.702087 197.485016,239.033615 212.314713,237.501236 
	C212.459595,237.486252 212.592560,237.355850 213.341354,236.942261 
	C213.341354,231.506699 213.343018,225.720947 213.340988,219.935211 
	C213.337418,209.791260 212.719833,209.221344 202.506714,209.918655 
	C202.340988,209.929977 202.173569,209.916763 202.007843,209.928177 
	C198.702957,210.155457 197.244263,211.775360 197.976517,215.380646 
	C201.380173,215.682877 204.704285,215.978058 208.028397,216.273224 
	C207.962006,216.661774 207.895630,217.050339 207.829254,217.438904 
	C204.580185,218.563354 201.331131,219.687820 197.747940,221.564056 
M239.393127,215.366959 
	C239.327957,209.378586 239.132629,203.387787 239.244156,197.402710 
	C239.316559,193.517624 237.732437,192.738571 234.450653,194.044510 
	C234.450653,208.585236 234.450653,222.996140 234.450653,237.216034 
	C240.698715,239.816483 238.459686,234.041672 239.757233,231.621750 
	C243.853806,238.277634 243.853806,238.277634 248.807480,236.601196 
	C241.419174,228.087952 241.819656,219.249512 248.698944,210.830399 
	C242.385513,207.653870 242.245712,213.184570 239.393127,215.366959 
M187.009308,209.228455 
	C187.009308,204.138779 187.009308,199.049088 187.009308,193.577774 
	C184.949127,193.678329 183.551254,193.746567 182.284149,193.808411 
	C182.284149,208.622330 182.284149,223.015549 182.284149,237.791626 
	C184.001205,237.681702 185.378357,237.593552 186.819489,237.501297 
	C186.900787,236.247498 186.944824,235.425049 187.009918,234.604279 
	C187.077454,233.752930 187.165405,232.903183 187.296417,231.493164 
	C191.765335,238.136597 191.765335,238.136597 196.664368,236.707138 
	C189.089645,228.120087 189.607285,219.200089 196.412338,210.710129 
	C189.993301,207.711563 189.931076,213.641998 187.009308,216.325684 
	C187.009308,213.737656 187.009308,211.931442 187.009308,209.228455 
M81.071136,234.790573 
	C84.128525,239.957596 89.155670,237.011032 93.285027,237.712234 
	C95.813782,238.141617 96.830315,236.857758 96.779465,234.284851 
	C96.668060,228.647263 96.785309,223.005600 96.742561,217.366104 
	C96.693352,210.873718 95.712074,209.929337 89.221367,209.897705 
	C87.894455,209.891235 86.560493,209.823135 85.241821,209.930786 
	C81.993477,210.195984 80.498238,211.833878 81.257332,215.369736 
	C84.594978,215.680679 87.847847,215.983734 92.422638,216.409943 
	C90.718597,217.711395 90.302650,218.267548 89.784599,218.389297 
	C80.771439,220.507629 80.765457,220.496017 80.800087,229.939972 
	C80.804947,231.266098 80.859833,232.592041 81.071136,234.790573 
M253.945572,209.933258 
	C250.736160,210.420898 249.328369,212.031464 250.360016,215.310883 
	C253.774658,215.688995 256.954559,216.041092 261.108398,216.501053 
	C257.237335,220.348526 250.787125,216.199783 250.016281,222.344559 
	C249.504562,226.423843 249.571899,230.694962 250.183746,234.759201 
	C250.695496,238.158463 257.325104,238.960022 265.542297,236.779495 
	C265.542297,231.484146 265.542664,226.032669 265.542175,220.581192 
	C265.541229,209.900726 265.541046,209.900726 253.945572,209.933258 
M131.402420,210.964066 
	C128.514679,210.586029 125.636742,210.071548 122.736824,209.863266 
	C118.795547,209.580231 116.945885,211.596909 116.983833,215.533798 
	C117.038162,221.169403 117.008598,226.805923 116.999756,232.442017 
	C116.993599,236.367523 119.486313,237.700562 122.825912,237.647507 
	C126.588120,237.587753 132.113174,239.197906 132.638779,233.712234 
	C133.336685,226.428238 132.303970,218.978439 131.402420,210.964066 
M279.907440,223.730896 
	C277.392822,221.619446 274.878174,219.507980 272.363556,217.396530 
	C272.631104,216.897888 272.898651,216.399261 273.166199,215.900620 
	C274.848663,216.119003 277.293488,215.726196 278.058380,216.680222 
	C279.764648,218.808411 282.108215,219.831085 283.145142,217.740433 
	C283.982697,216.051819 282.715607,211.304459 281.629059,211.042953 
	C277.931915,210.153107 273.580444,209.764618 270.142181,211.012543 
	C268.575012,211.581329 267.793488,216.512207 268.104858,219.302841 
	C268.319763,221.228989 270.929565,222.970428 272.632172,224.626816 
	C274.674744,226.613983 276.890656,228.423019 279.031494,230.309204 
	C278.596100,230.942230 278.160706,231.575256 277.725311,232.208298 
	C274.706970,231.071854 271.688629,229.935425 267.911591,228.513336 
	C268.203522,232.465286 266.695770,235.870209 270.912476,237.448990 
	C275.247589,239.072113 281.990753,237.761795 283.322357,235.068893 
	C284.996307,231.683685 283.704956,226.594376 279.907440,223.730896 
M109.945290,237.821442 
	C111.572029,236.248596 114.200127,234.891815 114.596748,233.053574 
	C115.231979,230.109451 115.953590,226.588272 112.052200,224.329315 
	C108.858498,222.480118 106.161812,219.772537 103.244797,217.445496 
	C103.575447,216.911850 103.906090,216.378204 104.236732,215.844559 
	C105.968307,216.064453 108.591347,215.667313 109.255119,216.626312 
	C110.888077,218.985474 113.239738,219.759644 114.211494,217.685181 
	C115.017860,215.963806 113.704300,211.254135 112.603622,210.998764 
	C108.907509,210.141296 104.692009,210.008301 101.091667,211.044617 
	C99.768501,211.425491 98.798080,215.956604 99.154129,218.375717 
	C99.472847,220.541275 101.638382,222.598801 103.348206,224.354202 
	C105.461220,226.523514 107.945152,228.331558 110.268822,230.295685 
	C109.849678,230.932953 109.430542,231.570236 109.011406,232.207520 
	C105.872093,231.072922 102.732780,229.938339 99.403648,228.735138 
	C98.533356,236.424042 99.626862,237.757828 106.091820,237.857697 
	C107.089020,237.873093 108.086754,237.854202 109.945290,237.821442 
M135.350800,229.886688 
	C135.907700,232.187653 135.838516,234.982834 137.171356,236.671280 
	C139.070084,239.076599 148.544769,238.188614 150.206406,236.000000 
	C152.456604,233.036209 150.917542,226.422791 147.535187,223.859589 
	C144.791779,221.780594 142.202499,219.498230 139.544846,217.306076 
	C139.821518,216.790100 140.098190,216.274139 140.374878,215.758163 
	C142.200058,216.049377 144.100037,216.118195 145.827820,216.699112 
	C147.328232,217.203583 148.633774,218.287613 150.025421,219.115524 
	C150.577469,218.650452 151.129501,218.185394 151.681534,217.720322 
	C150.760391,215.323212 150.276428,211.234558 148.832230,210.861313 
	C145.196777,209.921783 140.844879,209.861389 137.365997,211.097366 
	C135.876968,211.626389 135.272110,216.273804 135.365097,219.012573 
	C135.420563,220.646286 137.523499,222.284134 138.858643,223.784271 
	C141.110382,226.314346 145.608871,226.792389 146.127579,232.307709 
	C143.832184,231.694016 142.082123,231.265610 140.357101,230.752945 
	C138.856293,230.306931 137.383759,229.765671 135.350800,229.886688 
M74.420029,237.572372 
	C78.335114,237.950577 80.713799,236.977005 78.987755,232.128296 
	C76.602051,231.905197 74.188606,231.679504 71.506287,231.428665 
	C71.506287,226.254562 71.506287,221.337555 71.506287,216.301849 
	C73.271080,215.991623 75.007751,215.686356 77.019073,215.332809 
	C76.933525,213.516022 76.858582,211.924438 76.780800,210.272522 
	C74.832832,210.026077 73.241959,209.824814 71.431351,209.595734 
	C71.270081,206.266190 71.120621,203.180435 70.952179,199.702759 
	C69.146324,199.839157 67.752602,199.944427 66.121780,200.067612 
	C66.121780,210.316742 66.102859,220.140671 66.128372,229.964493 
	C66.145660,236.620514 66.850136,237.310547 74.420029,237.572372 
z"/>
<path fill="#FFFFFF" opacity="1.000000" stroke="none" 
	d="
M349.000000,161.531342 
	C348.333862,158.070465 347.500305,154.160797 347.031464,150.207855 
	C345.297791,135.590790 340.898193,121.705887 335.578217,108.080864 
	C328.951721,91.109749 319.307251,75.787117 307.425446,62.205173 
	C295.857117,48.981579 283.127930,36.631157 267.545990,27.965473 
	C257.934113,22.619970 248.209274,17.293367 238.041458,13.178140 
	C225.121338,7.948970 211.633759,4.244683 197.616119,2.978611 
	C194.523590,2.699295 191.454193,2.163910 188.187073,1.373219 
	C241.593674,1.000000 295.187347,1.000000 349.000000,1.000000 
	C349.000000,54.354027 349.000000,107.708359 349.000000,161.531342 
z"/>
<path fill="#FFFFFF" opacity="1.000000" stroke="none" 
	d="
M162.531342,1.000000 
	C158.902176,1.665083 154.818558,2.438688 150.704193,2.977376 
	C126.663818,6.124940 104.330444,14.109695 83.716652,26.805637 
	C61.082901,40.745663 42.606079,59.109161 28.228498,81.350517 
	C16.040670,100.204430 7.787614,120.827423 4.025737,143.070190 
	C2.988899,149.200684 2.499751,155.423782 1.379649,161.802200 
	C1.000000,108.406097 1.000000,54.812191 1.000000,1.000000 
	C54.687363,1.000000 108.375023,1.000000 162.531342,1.000000 
z"/>
<path fill="#FFFFFF" opacity="1.000000" stroke="none" 
	d="
M0.999999,189.468658 
	C1.993179,194.521423 3.154764,200.018768 3.948152,205.568756 
	C6.387704,222.634094 12.288557,238.501572 19.900949,253.875092 
	C33.050816,280.431763 52.563812,301.552246 76.388153,318.546112 
	C97.311890,333.470947 121.107925,342.263367 146.365402,346.889404 
	C151.360016,347.804199 156.520447,347.813721 161.802200,348.620361 
	C108.406548,349.000000 54.813099,349.000000 1.000000,349.000000 
	C1.000000,295.979309 1.000000,242.958313 0.999999,189.468658 
z"/>
<path fill="#FFFFFF" opacity="1.000000" stroke="none" 
	d="
M189.468658,349.000000 
	C194.693665,348.003052 200.371185,346.900482 206.083908,346.028320 
	C225.772018,343.022461 243.901810,335.731567 261.277222,326.265106 
	C279.325348,316.432068 294.244843,302.716705 307.750549,287.583954 
	C320.528168,273.266968 329.955048,256.645538 336.975250,238.746399 
	C343.203094,222.867538 347.314178,206.486755 348.622253,189.194611 
	C349.000000,242.260345 349.000000,295.520691 349.000000,349.000000 
	C295.979309,349.000000 242.958313,349.000000 189.468658,349.000000 
z"/>
<path fill="#000101" opacity="1.000000" stroke="none" 
	d="
M154.665359,101.560951 
	C173.398438,90.361847 194.590164,96.829338 205.135437,110.535904 
	C215.807983,124.407883 215.462158,144.471024 203.779251,158.466446 
	C192.459610,172.026703 172.415344,175.459244 156.198334,166.614609 
	C141.035355,158.344833 133.585770,139.535614 138.690399,122.920105 
	C141.441620,113.964897 146.673370,106.990990 154.665359,101.560951 
M173.934662,143.446259 
	C176.413635,136.239944 178.985931,129.063126 181.282761,121.799232 
	C181.680725,120.540710 180.912827,118.913544 180.683441,117.456657 
	C179.629211,118.395004 178.043488,119.135002 177.607224,120.303970 
	C174.826584,127.754852 172.156006,135.255371 169.778229,142.842667 
	C169.091446,145.034164 169.485901,147.564499 169.384659,149.939499 
	C170.819656,148.023285 172.254654,146.107071 173.934662,143.446259 
M196.447876,138.927551 
	C198.121765,137.199707 199.795654,135.471863 202.051178,133.143631 
	C198.488358,129.879517 195.546127,126.930283 192.306427,124.355362 
	C191.192902,123.470314 189.336334,123.520126 187.819214,123.142860 
	C188.265793,124.515556 188.326248,126.276550 189.237137,127.182350 
	C191.306580,129.240250 193.794144,130.877686 197.353897,133.655258 
	C193.227051,137.037384 190.565094,139.046585 188.154892,141.322433 
	C187.593262,141.852737 187.887360,143.289322 187.787720,144.308914 
	C188.835953,144.303726 190.199631,144.718201 190.871902,144.212875 
	C192.716843,142.826019 194.271362,141.052856 196.447876,138.927551 
M155.289093,126.804955 
	C152.827316,128.717834 150.365524,130.630722 147.237656,133.061172 
	C151.897644,137.460236 155.176132,140.711472 158.662720,143.721680 
	C159.407913,144.365051 160.908371,144.133682 162.060867,144.305283 
	C161.869659,143.160339 162.088516,141.559601 161.413544,140.952347 
	C158.984116,138.766663 156.253159,136.916138 153.634583,134.937820 
	C157.685516,130.397705 160.383331,127.374115 163.212524,124.203270 
	C159.001022,120.727196 157.896530,125.010185 155.289093,126.804955 
z"/>
<path fill="#020407" opacity="1.000000" stroke="none" 
	d="
M172.792953,247.916779 
	C173.687027,244.706558 174.121643,241.579132 174.545135,238.531754 
	C163.456543,236.341492 163.455551,236.341492 163.456787,225.530258 
	C163.457184,222.042068 163.511658,218.553101 163.455566,215.065887 
	C163.394836,211.290726 165.244614,209.599472 168.950424,209.660858 
	C172.226379,209.715134 175.503952,209.672211 179.276108,209.672211 
	C179.276108,223.481689 179.416641,236.726685 179.064865,249.958603 
	C179.028564,251.324112 176.213348,253.408249 174.414032,253.760101 
	C171.221893,254.384338 167.819885,253.935287 163.875809,253.935287 
	C163.775101,252.065964 163.684921,250.392395 163.556000,247.999588 
	C166.801834,247.999588 169.567657,247.999588 172.792953,247.916779 
M174.381592,219.947311 
	C174.871323,214.569473 171.944809,214.868530 168.397339,216.056900 
	C168.397339,219.937668 168.557648,223.576691 168.356430,227.195633 
	C168.109314,231.640106 169.894257,232.826843 174.382584,231.113953 
	C174.382584,227.711060 174.382584,224.270340 174.381592,219.947311 
z"/>
<path fill="#04070C" opacity="1.000000" stroke="none" 
	d="
M220.504974,237.719009 
	C216.699570,237.326538 215.735153,235.196213 215.778091,232.117233 
	C215.857025,226.456192 215.872330,220.792084 215.776794,215.131577 
	C215.712524,211.323761 217.527008,209.629181 221.220596,209.653488 
	C224.510727,209.675125 227.801117,209.658051 231.755356,209.658051 
	C231.755356,217.309464 231.756577,224.413818 231.754974,231.518173 
	C231.753738,237.013763 231.716309,242.509598 231.756470,248.004868 
	C231.786819,252.158737 229.854660,254.137360 225.645966,253.981583 
	C222.670303,253.871445 219.687286,253.960251 216.269897,253.960251 
	C216.269897,251.967117 216.269897,250.292374 216.269897,248.290237 
	C219.475388,248.125473 222.570709,247.966385 226.031677,247.788498 
	C226.031677,244.502213 226.031677,241.464508 226.031677,238.077316 
	C224.172668,237.954086 222.556992,237.846985 220.504974,237.719009 
M226.587067,221.704895 
	C226.694946,217.939423 227.100433,213.891312 221.142944,215.852249 
	C221.142944,221.107941 221.142944,226.279846 221.142944,231.594269 
	C222.988174,231.594269 224.412231,231.594269 226.586777,231.594269 
	C226.586777,228.444305 226.586777,225.526672 226.587067,221.704895 
z"/>
<path fill="#020407" opacity="1.000000" stroke="none" 
	d="
M197.915009,221.188171 
	C201.331131,219.687820 204.580185,218.563354 207.829254,217.438904 
	C207.895630,217.050339 207.962006,216.661774 208.028397,216.273224 
	C204.704285,215.978058 201.380173,215.682877 197.976517,215.380646 
	C197.244263,211.775360 198.702957,210.155457 202.007843,209.928177 
	C202.173569,209.916763 202.340988,209.929977 202.506714,209.918655 
	C212.719833,209.221344 213.337418,209.791260 213.340988,219.935211 
	C213.343018,225.720947 213.341354,231.506699 213.341354,236.942261 
	C212.592560,237.355850 212.459595,237.486252 212.314713,237.501236 
	C197.485016,239.033615 196.268921,237.702087 197.915009,221.188171 
M202.497025,230.191574 
	C204.129639,230.894791 205.762253,231.598022 207.808167,232.479263 
	C207.808167,229.038681 207.808167,226.836105 207.808167,224.598663 
	C205.684448,224.598663 203.980621,224.598663 202.416931,224.598663 
	C202.416931,226.447861 202.416931,227.931519 202.497025,230.191574 
z"/>
<path fill="#03060B" opacity="1.000000" stroke="none" 
	d="
M239.689697,215.387161 
	C242.245712,213.184570 242.385513,207.653870 248.698944,210.830399 
	C241.819656,219.249512 241.419174,228.087952 248.807480,236.601196 
	C243.853806,238.277634 243.853806,238.277634 239.757233,231.621750 
	C238.459686,234.041672 240.698715,239.816483 234.450653,237.216034 
	C234.450653,222.996140 234.450653,208.585236 234.450653,194.044510 
	C237.732437,192.738571 239.316559,193.517624 239.244156,197.402710 
	C239.132629,203.387787 239.327957,209.378586 239.689697,215.387161 
z"/>
<path fill="#010204" opacity="1.000000" stroke="none" 
	d="
M187.009308,209.676849 
	C187.009308,211.931442 187.009308,213.737656 187.009308,216.325684 
	C189.931076,213.641998 189.993301,207.711563 196.412338,210.710129 
	C189.607285,219.200089 189.089645,228.120087 196.664368,236.707138 
	C191.765335,238.136597 191.765335,238.136597 187.296417,231.493164 
	C187.165405,232.903183 187.077454,233.752930 187.009918,234.604279 
	C186.944824,235.425049 186.900787,236.247498 186.819489,237.501297 
	C185.378357,237.593552 184.001205,237.681702 182.284149,237.791626 
	C182.284149,223.015549 182.284149,208.622330 182.284149,193.808411 
	C183.551254,193.746567 184.949127,193.678329 187.009308,193.577774 
	C187.009308,199.049088 187.009308,204.138779 187.009308,209.676849 
z"/>
<path fill="#03070C" opacity="1.000000" stroke="none" 
	d="
M80.981354,234.354309 
	C80.859833,232.592041 80.804947,231.266098 80.800087,229.939972 
	C80.765457,220.496017 80.771439,220.507629 89.784599,218.389297 
	C90.302650,218.267548 90.718597,217.711395 92.422638,216.409943 
	C87.847847,215.983734 84.594978,215.680679 81.257332,215.369736 
	C80.498238,211.833878 81.993477,210.195984 85.241821,209.930786 
	C86.560493,209.823135 87.894455,209.891235 89.221367,209.897705 
	C95.712074,209.929337 96.693352,210.873718 96.742561,217.366104 
	C96.785309,223.005600 96.668060,228.647263 96.779465,234.284851 
	C96.830315,236.857758 95.813782,238.141617 93.285027,237.712234 
	C89.155670,237.011032 84.128525,239.957596 80.981354,234.354309 
M91.717522,226.895737 
	C90.808990,222.731125 88.139427,224.383316 85.611053,224.789062 
	C85.771698,227.202682 85.911583,229.304245 86.059807,231.531189 
	C89.655388,232.378784 92.308014,232.410309 91.717522,226.895737 
z"/>
<path fill="#020407" opacity="1.000000" stroke="none" 
	d="
M254.387634,209.924957 
	C265.541046,209.900726 265.541229,209.900726 265.542175,220.581192 
	C265.542664,226.032669 265.542297,231.484146 265.542297,236.779495 
	C257.325104,238.960022 250.695496,238.158463 250.183746,234.759201 
	C249.571899,230.694962 249.504562,226.423843 250.016281,222.344559 
	C250.787125,216.199783 257.237335,220.348526 261.108398,216.501053 
	C256.954559,216.041092 253.774658,215.688995 250.360016,215.310883 
	C249.328369,212.031464 250.736160,210.420898 254.387634,209.924957 
M257.452759,231.967697 
	C262.164917,232.125137 260.890015,228.382599 260.310272,226.419983 
	C259.924744,225.114899 257.186737,224.504745 255.501709,223.583542 
	C254.990677,224.064194 254.479645,224.544846 253.968613,225.025497 
	C254.851273,227.327744 255.733948,229.629990 257.452759,231.967697 
z"/>
<path fill="#010204" opacity="1.000000" stroke="none" 
	d="
M131.708633,211.281982 
	C132.303970,218.978439 133.336685,226.428238 132.638779,233.712234 
	C132.113174,239.197906 126.588120,237.587753 122.825912,237.647507 
	C119.486313,237.700562 116.993599,236.367523 116.999756,232.442017 
	C117.008598,226.805923 117.038162,221.169403 116.983833,215.533798 
	C116.945885,211.596909 118.795547,209.580231 122.736824,209.863266 
	C125.636742,210.071548 128.514679,210.586029 131.708633,211.281982 
M122.630569,216.042465 
	C122.398880,221.196884 122.167191,226.351318 121.916603,231.926056 
	C124.484352,231.730728 126.040672,231.612335 127.949982,231.467102 
	C127.949982,227.220673 127.760139,223.417480 128.005142,219.642487 
	C128.235062,216.099777 126.570114,215.282379 122.630569,216.042465 
z"/>
<path fill="#020408" opacity="1.000000" stroke="none" 
	d="
M280.225861,223.925598 
	C283.704956,226.594376 284.996307,231.683685 283.322357,235.068893 
	C281.990753,237.761795 275.247589,239.072113 270.912476,237.448990 
	C266.695770,235.870209 268.203522,232.465286 267.911591,228.513336 
	C271.688629,229.935425 274.706970,231.071854 277.725311,232.208298 
	C278.160706,231.575256 278.596100,230.942230 279.031494,230.309204 
	C276.890656,228.423019 274.674744,226.613983 272.632172,224.626816 
	C270.929565,222.970428 268.319763,221.228989 268.104858,219.302841 
	C267.793488,216.512207 268.575012,211.581329 270.142181,211.012543 
	C273.580444,209.764618 277.931915,210.153107 281.629059,211.042953 
	C282.715607,211.304459 283.982697,216.051819 283.145142,217.740433 
	C282.108215,219.831085 279.764648,218.808411 278.058380,216.680222 
	C277.293488,215.726196 274.848663,216.119003 273.166199,215.900620 
	C272.898651,216.399261 272.631104,216.897888 272.363556,217.396530 
	C274.878174,219.507980 277.392822,221.619446 280.225861,223.925598 
z"/>
<path fill="#020407" opacity="1.000000" stroke="none" 
	d="
M109.514763,237.836304 
	C108.086754,237.854202 107.089020,237.873093 106.091820,237.857697 
	C99.626862,237.757828 98.533356,236.424042 99.403648,228.735138 
	C102.732780,229.938339 105.872093,231.072922 109.011406,232.207520 
	C109.430542,231.570236 109.849678,230.932953 110.268822,230.295685 
	C107.945152,228.331558 105.461220,226.523514 103.348206,224.354202 
	C101.638382,222.598801 99.472847,220.541275 99.154129,218.375717 
	C98.798080,215.956604 99.768501,211.425491 101.091667,211.044617 
	C104.692009,210.008301 108.907509,210.141296 112.603622,210.998764 
	C113.704300,211.254135 115.017860,215.963806 114.211494,217.685181 
	C113.239738,219.759644 110.888077,218.985474 109.255119,216.626312 
	C108.591347,215.667313 105.968307,216.064453 104.236732,215.844559 
	C103.906090,216.378204 103.575447,216.911850 103.244797,217.445496 
	C106.161812,219.772537 108.858498,222.480118 112.052200,224.329315 
	C115.953590,226.588272 115.231979,230.109451 114.596748,233.053574 
	C114.200127,234.891815 111.572029,236.248596 109.514763,237.836304 
z"/>
<path fill="#020407" opacity="1.000000" stroke="none" 
	d="
M135.624771,229.576599 
	C137.383759,229.765671 138.856293,230.306931 140.357101,230.752945 
	C142.082123,231.265610 143.832184,231.694016 146.127579,232.307709 
	C145.608871,226.792389 141.110382,226.314346 138.858643,223.784271 
	C137.523499,222.284134 135.420563,220.646286 135.365097,219.012573 
	C135.272110,216.273804 135.876968,211.626389 137.365997,211.097366 
	C140.844879,209.861389 145.196777,209.921783 148.832230,210.861313 
	C150.276428,211.234558 150.760391,215.323212 151.681534,217.720322 
	C151.129501,218.185394 150.577469,218.650452 150.025421,219.115524 
	C148.633774,218.287613 147.328232,217.203583 145.827820,216.699112 
	C144.100037,216.118195 142.200058,216.049377 140.374878,215.758163 
	C140.098190,216.274139 139.821518,216.790100 139.544846,217.306076 
	C142.202499,219.498230 144.791779,221.780594 147.535187,223.859589 
	C150.917542,226.422791 152.456604,233.036209 150.206406,236.000000 
	C148.544769,238.188614 139.070084,239.076599 137.171356,236.671280 
	C135.838516,234.982834 135.907700,232.187653 135.624771,229.576599 
z"/>
<path fill="#04070C" opacity="1.000000" stroke="none" 
	d="
M73.999718,237.572052 
	C66.850136,237.310547 66.145660,236.620514 66.128372,229.964493 
	C66.102859,220.140671 66.121780,210.316742 66.121780,200.067612 
	C67.752602,199.944427 69.146324,199.839157 70.952179,199.702759 
	C71.120621,203.180435 71.270081,206.266190 71.431351,209.595734 
	C73.241959,209.824814 74.832832,210.026077 76.780800,210.272522 
	C76.858582,211.924438 76.933525,213.516022 77.019073,215.332809 
	C75.007751,215.686356 73.271080,215.991623 71.506287,216.301849 
	C71.506287,221.337555 71.506287,226.254562 71.506287,231.428665 
	C74.188606,231.679504 76.602051,231.905197 78.987755,232.128296 
	C80.713799,236.977005 78.335114,237.950577 73.999718,237.572052 
z"/>
<path fill="#305DA4" opacity="1.000000" stroke="none" 
	d="
M173.812164,143.818558 
	C172.254654,146.107071 170.819656,148.023285 169.384659,149.939499 
	C169.485901,147.564499 169.091446,145.034164 169.778229,142.842667 
	C172.156006,135.255371 174.826584,127.754852 177.607224,120.303970 
	C178.043488,119.135002 179.629211,118.395004 180.683441,117.456657 
	C180.912827,118.913544 181.680725,120.540710 181.282761,121.799232 
	C178.985931,129.063126 176.413635,136.239944 173.812164,143.818558 
z"/>
<path fill="#305CA3" opacity="1.000000" stroke="none" 
	d="
M196.194366,139.180069 
	C194.271362,141.052856 192.716843,142.826019 190.871902,144.212875 
	C190.199631,144.718201 188.835953,144.303726 187.787720,144.308914 
	C187.887360,143.289322 187.593262,141.852737 188.154892,141.322433 
	C190.565094,139.046585 193.227051,137.037384 197.353897,133.655258 
	C193.794144,130.877686 191.306580,129.240250 189.237137,127.182350 
	C188.326248,126.276550 188.265793,124.515556 187.819214,123.142860 
	C189.336334,123.520126 191.192902,123.470314 192.306427,124.355362 
	C195.546127,126.930283 198.488358,129.879517 202.051178,133.143631 
	C199.795654,135.471863 198.121765,137.199707 196.194366,139.180069 
z"/>
<path fill="#3260AA" opacity="1.000000" stroke="none" 
	d="
M155.537781,126.556931 
	C157.896530,125.010185 159.001022,120.727196 163.212524,124.203270 
	C160.383331,127.374115 157.685516,130.397705 153.634583,134.937820 
	C156.253159,136.916138 158.984116,138.766663 161.413544,140.952347 
	C162.088516,141.559601 161.869659,143.160339 162.060883,144.305283 
	C160.908371,144.133682 159.407913,144.365051 158.662720,143.721680 
	C155.176132,140.711472 151.897644,137.460236 147.237656,133.061172 
	C150.365524,130.630722 152.827316,128.717834 155.537781,126.556931 
z"/>
<path fill="#2F5BA1" opacity="1.000000" stroke="none" 
	d="
M174.382080,220.388458 
	C174.382584,224.270340 174.382584,227.711060 174.382584,231.113953 
	C169.894257,232.826843 168.109314,231.640106 168.356430,227.195633 
	C168.557648,223.576691 168.397339,219.937668 168.397339,216.056900 
	C171.944809,214.868530 174.871323,214.569473 174.382080,220.388458 
z"/>
<path fill="#2F5A9F" opacity="1.000000" stroke="none" 
	d="
M226.586914,222.156967 
	C226.586777,225.526672 226.586777,228.444305 226.586777,231.594269 
	C224.412231,231.594269 222.988174,231.594269 221.142944,231.594269 
	C221.142944,226.279846 221.142944,221.107941 221.142944,215.852249 
	C227.100433,213.891312 226.694946,217.939423 226.586914,222.156967 
z"/>
<path fill="#2E599E" opacity="1.000000" stroke="none" 
	d="
M202.456970,229.803375 
	C202.416931,227.931519 202.416931,226.447861 202.416931,224.598663 
	C203.980621,224.598663 205.684448,224.598663 207.808167,224.598663 
	C207.808167,226.836105 207.808167,229.038681 207.808167,232.479263 
	C205.762253,231.598022 204.129639,230.894791 202.456970,229.803375 
z"/>
<path fill="#2F5A9F" opacity="1.000000" stroke="none" 
	d="
M91.728600,227.303833 
	C92.308014,232.410309 89.655388,232.378784 86.059807,231.531189 
	C85.911583,229.304245 85.771698,227.202682 85.611053,224.789062 
	C88.139427,224.383316 90.808990,222.731125 91.728600,227.303833 
z"/>
<path fill="#2E589C" opacity="1.000000" stroke="none" 
	d="
M257.034668,231.949966 
	C255.733948,229.629990 254.851273,227.327744 253.968613,225.025497 
	C254.479645,224.544846 254.990677,224.064194 255.501709,223.583542 
	C257.186737,224.504745 259.924744,225.114899 260.310272,226.419983 
	C260.890015,228.382599 262.164917,232.125137 257.034668,231.949966 
z"/>
<path fill="#3260AA" opacity="1.000000" stroke="none" 
	d="
M123.084412,215.913773 
	C126.570114,215.282379 128.235062,216.099777 128.005142,219.642487 
	C127.760139,223.417480 127.949982,227.220673 127.949982,231.467102 
	C126.040672,231.612335 124.484352,231.730728 121.916603,231.926056 
	C122.167191,226.351318 122.398880,221.196884 123.084412,215.913773 
z"/>
</svg>